<svg xmlns="http://www.w3.org/2000/svg" viewBox="0 0 256 256">
  <path fill="#092E20" d="M186.377 94.198v82.574c0 28.655-2.1 42.418-8.399 54.293-5.879 11.456-13.649 18.696-29.54 26.775l-34.155-16.222c15.891-7.44 23.66-14.049 28.488-24.265 5.039-10.427 6.72-22.511 6.72-53.871V94.198h36.886Zm-36.992-57.312h36.992v36.887h-36.992V36.886ZM83.783 94.198h37.097v84.045c-12.19 2.204-21.25 3.046-31.058 3.046-29.223 0-44.481-13.229-44.481-38.547 0-24.269 16.309-40.056 41.518-40.056 4.515 0 7.982.42 11.924 1.469V94.198h-15Zm0 35.428c-2.731-.63-4.935-.947-7.56-.947-12.298 0-19.319 7.44-19.319 20.562 0 12.718 6.603 19.74 18.8 19.74 2.627 0 4.831-.21 8.079-.63V129.626Z"/>
</svg>
